<svg width="36" height="40" viewBox="0 0 36 40" fill="none" xmlns="http://www.w3.org/2000/svg">
<path d="M31.75 0H4.25C2.25 0 0.5 1.75 0.5 3.75V36.25C0.5 38.25 2.25 40 4.25 40H31.75C33.75 40 35.5 38.25 35.5 36.25V3.75C35.5 1.75 33.75 0 31.75 0ZM10.5 34C10.5 34.5 10 35 9.5 35H6.5C6 35 5.5 34.5 5.5 34V31C5.5 30.5 6 30 6.5 30H9.5C10 30 10.5 30.5 10.5 31V34ZM10.5 24C10.5 24.5 10 25 9.5 25H6.5C6 25 5.5 24.5 5.5 24V21C5.5 20.5 6 20 6.5 20H9.5C10 20 10.5 20.5 10.5 21V24ZM20.5 34C20.5 34.5 20 35 19.5 35H16.5C16 35 15.5 34.5 15.5 34V31C15.5 30.5 16 30 16.5 30H19.5C20 30 20.5 30.5 20.5 31V34ZM20.5 24C20.5 24.5 20 25 19.5 25H16.5C16 25 15.5 24.5 15.5 24V21C15.5 20.5 16 20 16.5 20H19.5C20 20 20.5 20.5 20.5 21V24ZM30.5 34C30.5 34.5 30 35 29.5 35H26.5C26 35 25.5 34.5 25.5 34V21C25.5 20.5 26 20 26.5 20H29.5C30 20 30.5 20.5 30.5 21V34ZM30.5 14C30.5 14.5 30 15 29.5 15H6.5C6 15 5.5 14.5 5.5 14V6C5.5 5.5 6 5 6.5 5H29.5C30 5 30.5 5.5 30.5 6V14Z" fill="white"/>
</svg>
