<svg width="42" height="42" viewBox="0 0 42 42" fill="none" xmlns="http://www.w3.org/2000/svg">
<path d="M21 40.4737C31.755 40.4737 40.4737 31.7551 40.4737 21.0001C40.4737 10.245 31.755 1.52637 21 1.52637C10.245 1.52637 1.52631 10.245 1.52631 21.0001C1.52631 31.7551 10.245 40.4737 21 40.4737Z" stroke="white" stroke-width="1.5"/>
<path d="M37.7974 21.0525C37.7974 30.3003 30.3005 37.7972 21.0526 37.7972V38.0972C30.4662 38.0972 38.0974 30.466 38.0974 21.0525H37.7974ZM21.0526 37.7972C11.8048 37.7972 4.3079 30.3003 4.3079 21.0525H4.0079C4.0079 30.466 11.6391 38.0972 21.0526 38.0972V37.7972ZM4.3079 21.0525C4.3079 11.8046 11.8048 4.30771 21.0526 4.30771V4.00771C11.6391 4.00771 4.0079 11.6389 4.0079 21.0525H4.3079ZM21.0526 4.30771C30.3005 4.30771 37.7974 11.8046 37.7974 21.0525H38.0974C38.0974 11.6389 30.4662 4.00771 21.0526 4.00771V4.30771ZM37.7447 21.0525C37.7447 30.2712 30.2714 37.7446 21.0526 37.7446V38.0446C30.4371 38.0446 38.0447 30.4369 38.0447 21.0525H37.7447ZM21.0526 37.7446C11.8338 37.7446 4.36053 30.2712 4.36053 21.0525H4.06053C4.06053 30.4369 11.6682 38.0446 21.0526 38.0446V37.7446ZM4.36053 21.0525C4.36053 11.8337 11.8338 4.36035 21.0526 4.36035V4.06035C11.6682 4.06035 4.06053 11.668 4.06053 21.0525H4.36053ZM21.0526 4.36035C30.2714 4.36035 37.7447 11.8337 37.7447 21.0525H38.0447C38.0447 11.668 30.4371 4.06035 21.0526 4.06035V4.36035Z" fill="white"/>
<path d="M13.766 21.3334C14.4239 21.3128 14.9139 21.1552 15.236 20.8605C15.565 20.559 15.7294 20.1718 15.7294 19.6989C15.7294 19.4522 15.6472 18.9657 15.4827 18.2392C15.3251 17.5128 15.2463 16.8652 15.2463 16.2964C15.2463 14.8778 15.6438 13.8156 16.4387 13.1097C17.2405 12.397 18.4467 12.0269 20.0571 11.9995H20.3244V12.7808H20.1702C19.1765 12.7808 18.3987 13.0412 17.8367 13.562C17.2748 14.076 16.9938 14.9258 16.9938 16.1114C16.9938 16.5911 17.0623 17.1839 17.1994 17.8897C17.3365 18.5956 17.405 19.0993 17.405 19.4008C17.405 19.9833 17.2337 20.4631 16.891 20.84C16.5484 21.21 16.1406 21.4842 15.6677 21.6623V21.8474C16.1406 22.0256 16.5484 22.3031 16.891 22.68C17.2337 23.0501 17.405 23.5264 17.405 24.1089C17.405 24.4104 17.3365 24.9141 17.1994 25.62C17.0623 26.3259 16.9938 26.9186 16.9938 27.3984C16.9938 28.6456 17.2748 29.5262 17.8367 30.0402C18.3987 30.5611 19.1765 30.8215 20.1702 30.8215H20.3244V31.6027H20.0571C18.4467 31.5753 17.2405 31.2052 16.4387 30.4925C15.6438 29.7867 15.2463 28.6936 15.2463 27.2133C15.2463 26.6445 15.3251 25.9969 15.4827 25.2705C15.6472 24.5441 15.7294 24.0575 15.7294 23.8108C15.7294 23.3379 15.565 22.9541 15.236 22.6595C14.9139 22.3579 14.4239 22.1969 13.766 22.1763V21.3334Z" fill="#E1DCF0"/>
<path d="M28.1266 22.1866C27.4687 22.2072 26.9753 22.3682 26.6464 22.6697C26.3243 22.9644 26.1632 23.3482 26.1632 23.8211C26.1632 24.0678 26.242 24.5543 26.3997 25.2808C26.5641 26.0072 26.6464 26.6548 26.6464 27.2236C26.6464 28.697 26.2455 29.7867 25.4437 30.4925C24.6487 31.2052 23.446 31.5753 21.8355 31.6027H21.5682V30.8215H21.7224C22.7161 30.8215 23.494 30.5611 24.0559 30.0402C24.6179 29.5262 24.8988 28.649 24.8988 27.4086C24.8988 26.9289 24.8303 26.3361 24.6932 25.6303C24.5562 24.9244 24.4876 24.4207 24.4876 24.1192C24.4876 23.5367 24.659 23.0604 25.0016 22.6903C25.3443 22.3134 25.752 22.0358 26.2249 21.8577V21.6726C25.752 21.4944 25.3443 21.2203 25.0016 20.8503C24.659 20.4733 24.4876 19.9936 24.4876 19.4111C24.4876 19.1096 24.5562 18.6059 24.6932 17.9C24.8303 17.1941 24.8988 16.6013 24.8988 16.1216C24.8988 14.9292 24.6179 14.076 24.0559 13.562C23.494 13.0412 22.7161 12.7808 21.7224 12.7808H21.5682V11.9995H21.8355C23.446 12.0269 24.6487 12.397 25.4437 13.1097C26.2455 13.8156 26.6464 14.8812 26.6464 16.3067C26.6464 16.8755 26.5641 17.5231 26.3997 18.2495C26.242 18.9759 26.1632 19.4625 26.1632 19.7092C26.1632 20.1821 26.3243 20.5693 26.6464 20.8708C26.9753 21.1655 27.4687 21.3231 28.1266 21.3437V22.1866Z" fill="#E1DCF0"/>
</svg>
