<svg width="520" height="300" viewBox="0 0 520 300" fill="none" xmlns="http://www.w3.org/2000/svg">
<path d="M31.6263 162.07H13.3293L9.83884 170.508H0.493317L18.0584 131.133H27.0661L44.6875 170.508H35.1168L31.6263 162.07ZM28.7551 155.151L22.506 140.076L16.2568 155.151H28.7551Z" fill="#9470FF"/>
<path d="M84.6382 170.508L84.5819 146.883L72.9844 166.345H68.8747L57.3335 147.389V170.508H48.7762V131.133H56.3201L71.0703 155.601L85.5953 131.133H93.0829L93.1955 170.508H84.6382Z" fill="#9470FF"/>
<path d="M121.405 171.183C117.389 171.183 113.749 170.32 110.483 168.595C107.256 166.833 104.704 164.414 102.827 161.339C100.988 158.226 100.068 154.72 100.068 150.82C100.068 146.92 100.988 143.433 102.827 140.358C104.704 137.245 107.256 134.826 110.483 133.101C113.749 131.339 117.408 130.458 121.462 130.458C124.877 130.458 127.955 131.058 130.695 132.258C133.472 133.458 135.799 135.183 137.676 137.433L131.821 142.833C129.156 139.758 125.853 138.22 121.912 138.22C119.472 138.22 117.296 138.764 115.381 139.851C113.467 140.901 111.966 142.383 110.878 144.295C109.827 146.208 109.301 148.383 109.301 150.82C109.301 153.258 109.827 155.433 110.878 157.345C111.966 159.258 113.467 160.758 115.381 161.845C117.296 162.895 119.472 163.42 121.912 163.42C125.853 163.42 129.156 161.864 131.821 158.751L137.676 164.151C135.799 166.439 133.472 168.183 130.695 169.383C127.917 170.583 124.821 171.183 121.405 171.183Z" fill="#9470FF"/>
<path d="M311.049 167.592V169.336H284.42V129.961H310.261V131.705H286.334V148.467H307.727V150.211H286.334V167.592H311.049Z" fill="#9470FF"/>
<path d="M349.724 169.336L339.984 155.78C338.708 156.005 337.282 156.117 335.706 156.117H323.939V169.336H322.025V129.961H335.706C340.622 129.961 344.451 131.123 347.191 133.448C349.968 135.736 351.357 138.923 351.357 143.011C351.357 146.161 350.531 148.805 348.88 150.942C347.266 153.042 344.939 154.505 341.899 155.33L351.976 169.336H349.724ZM335.818 154.373C340.21 154.373 343.588 153.398 345.952 151.448C348.317 149.461 349.499 146.648 349.499 143.011C349.499 139.411 348.317 136.636 345.952 134.686C343.588 132.698 340.21 131.705 335.818 131.705H323.939V154.373H335.818Z" fill="#9470FF"/>
<path d="M392.892 129.961L375.214 169.336H373.357L355.679 129.961H357.818L374.37 166.861L390.865 129.961H392.892Z" fill="#9470FF"/>
<path d="M399.71 129.961H401.625V169.336H399.71V129.961Z" fill="#9470FF"/>
<path d="M432.366 169.561C428.537 169.561 425.066 168.698 421.95 166.973C418.873 165.248 416.452 162.867 414.688 159.83C412.924 156.792 412.042 153.398 412.042 149.648C412.042 145.898 412.924 142.505 414.688 139.467C416.452 136.43 418.873 134.048 421.95 132.323C425.066 130.598 428.537 129.736 432.366 129.736C435.068 129.736 437.601 130.186 439.966 131.086C442.33 131.948 444.357 133.242 446.046 134.967L444.864 136.205C441.599 133.055 437.451 131.48 432.422 131.48C428.969 131.48 425.835 132.286 423.02 133.898C420.205 135.473 417.991 137.648 416.377 140.423C414.763 143.198 413.956 146.273 413.956 149.648C413.956 153.023 414.763 156.098 416.377 158.873C417.991 161.648 420.205 163.842 423.02 165.455C425.835 167.03 428.969 167.817 432.422 167.817C437.414 167.817 441.561 166.223 444.864 163.036L446.046 164.273C444.357 165.998 442.33 167.311 439.966 168.211C437.639 169.111 435.105 169.561 432.366 169.561Z" fill="#9470FF"/>
<path d="M482.803 167.592V169.336H456.174V129.961H482.015V131.705H458.088V148.467H479.481V150.211H458.088V167.592H482.803Z" fill="#9470FF"/>
<path d="M503.744 169.561C500.891 169.561 498.17 169.055 495.581 168.042C493.028 167.03 491.058 165.717 489.669 164.105L490.683 162.755C491.996 164.255 493.817 165.492 496.144 166.467C498.508 167.405 501.023 167.873 503.688 167.873C507.628 167.873 510.594 167.105 512.583 165.567C514.61 163.992 515.623 161.986 515.623 159.548C515.623 157.673 515.097 156.173 514.046 155.048C512.996 153.886 511.701 153.023 510.162 152.461C508.623 151.861 506.521 151.242 503.857 150.605C501.004 149.892 498.715 149.198 496.988 148.523C495.262 147.848 493.798 146.817 492.597 145.43C491.396 144.042 490.795 142.186 490.795 139.861C490.795 138.023 491.283 136.336 492.259 134.798C493.235 133.261 494.717 132.042 496.707 131.142C498.733 130.205 501.248 129.736 504.251 129.736C506.39 129.736 508.492 130.055 510.556 130.692C512.658 131.33 514.441 132.211 515.904 133.336L515.06 134.855C513.521 133.73 511.795 132.886 509.88 132.323C508.004 131.723 506.146 131.423 504.307 131.423C500.479 131.423 497.57 132.23 495.581 133.842C493.629 135.417 492.653 137.423 492.653 139.861C492.653 141.773 493.179 143.311 494.229 144.473C495.318 145.598 496.632 146.461 498.17 147.061C499.747 147.661 501.849 148.28 504.476 148.917C507.328 149.63 509.618 150.323 511.344 150.998C513.071 151.636 514.516 152.648 515.679 154.036C516.88 155.386 517.481 157.205 517.481 159.492C517.481 161.33 516.974 163.017 515.961 164.555C514.985 166.092 513.465 167.311 511.401 168.211C509.336 169.111 506.784 169.561 503.744 169.561Z" fill="#9470FF"/>
<path d="M238.333 37.5L144.678 168.75H200.859L183.559 262.5L277.214 131.25H221.033L238.333 37.5Z" fill="#FFC84A"/>
</svg>
