<svg width="418" height="568" viewBox="0 0 418 568" fill="none" xmlns="http://www.w3.org/2000/svg">
<path d="M370.79 544.877H103.736C90.917 544.877 80.5909 534.902 80.5909 522.774H94.8338C94.8338 527.421 98.8693 531.275 103.736 531.275H370.79C381.709 531.275 390.611 522.774 390.611 512.345V349.801H404.854V512.345C404.854 530.255 389.543 544.877 370.79 544.877Z" fill="#D1CDE0"/>
<path d="M320.375 29.0178L314.678 0L308.981 29.0178V80.3657H320.375V29.0178Z" fill="#666275"/>
<path d="M238.687 495.683H40.7109C18.2784 495.683 0 478.227 0 456.803V119.245C0 97.8217 18.2784 80.3657 40.7109 80.3657H238.806C261.238 80.3657 279.517 97.8217 279.517 119.245V456.803C279.517 478.227 261.238 495.683 238.687 495.683Z" fill="#FFC84A"/>
<path d="M40.7109 484.347C24.8064 484.347 11.8691 471.992 11.8691 456.803V119.245C11.8691 104.056 24.8064 91.7007 40.7109 91.7007H238.806C254.71 91.7007 267.648 104.056 267.648 119.245V456.803C267.648 471.992 254.71 484.347 238.806 484.347H40.7109Z" fill="#666275"/>
<path d="M242.485 139.648H36.7941V231.915H242.485V139.648Z" fill="white"/>
<path d="M234.177 147.582H45.1025V223.98H234.177V147.582Z" fill="#D9CCFF"/>
<path d="M64.5677 184.422L61.4818 187.369L58.3958 184.422L58.5145 164.245L61.6005 161.298L64.6864 164.245L64.5677 184.422ZM64.5677 212.76L61.4818 215.707L58.3958 212.76L58.5145 192.47L61.6005 189.636L64.6864 192.583L64.5677 212.76ZM90.3236 188.503L87.2377 191.45H65.7546L62.6687 188.503L65.6359 185.555H87.2377L90.3236 188.503ZM90.2049 216.84L87.119 219.787H65.6359L62.55 216.84L65.6359 213.893H87.119L90.2049 216.84ZM90.3236 160.165L87.2377 163.112H65.7546L62.6687 160.165L65.7546 157.218H87.2377L90.3236 160.165ZM94.4778 184.422L91.3918 187.256L88.3059 184.309V164.245L91.3918 161.298L94.4778 164.245V184.422ZM94.4778 212.76L91.3918 215.707L88.3059 212.76V192.583L91.3918 189.636L94.4778 192.583V212.76Z" fill="#666275"/>
<path d="M106.703 184.422L103.617 187.369L100.531 184.422L100.65 164.245L103.736 161.298L106.822 164.245L106.703 184.422ZM106.703 212.76L103.617 215.707L100.531 212.76L100.65 192.47L103.736 189.636L106.822 192.583L106.703 212.76ZM132.459 188.503L129.373 191.45H107.89L104.804 188.503L107.771 185.555H129.373L132.459 188.503ZM132.34 216.84L129.254 219.787H107.89L104.804 216.84L107.89 213.893H129.373L132.34 216.84ZM132.459 160.165L129.373 163.112H107.89L104.804 160.165L107.89 157.218H129.373L132.459 160.165ZM136.613 184.422L133.527 187.256L130.441 184.309V164.245L133.527 161.298L136.613 164.245V184.422ZM136.613 212.76L133.527 215.707L130.441 212.76V192.583L133.527 189.636L136.613 192.583V212.76Z" fill="#666275"/>
<path d="M148.838 184.422L145.752 187.369L142.666 184.422L142.785 164.245L145.871 161.298L148.957 164.245L148.838 184.422ZM148.838 212.76L145.752 215.707L142.666 212.76L142.785 192.47L145.871 189.636L148.957 192.583L148.838 212.76ZM174.594 188.503L171.508 191.45H150.025L146.939 188.503L149.906 185.555H171.508L174.594 188.503ZM174.594 216.84L171.508 219.787H150.025L146.939 216.84L150.025 213.893H171.508L174.594 216.84ZM174.594 160.165L171.508 163.112H150.025L147.058 160.165L150.144 157.218H171.627L174.594 160.165ZM178.748 184.422L175.662 187.256L172.576 184.309V164.245L175.662 161.298L178.748 164.245V184.422ZM178.748 212.76L175.662 215.707L172.576 212.76V192.583L175.662 189.636L178.748 192.583V212.76Z" fill="#666275"/>
<path d="M190.973 184.422L187.887 187.369L184.801 184.422L184.92 164.245L188.006 161.298L191.092 164.245L190.973 184.422ZM191.092 212.76L188.006 215.707L184.92 212.76L185.039 192.47L188.125 189.636L191.211 192.583L191.092 212.76ZM216.729 188.503L213.643 191.45H192.16L189.074 188.503L192.042 185.555H213.643L216.729 188.503ZM216.729 216.84L213.643 219.787H192.16L189.074 216.84L192.16 213.893H213.643L216.729 216.84ZM216.729 160.165L213.643 163.112H192.16L189.074 160.165L192.16 157.218H213.643L216.729 160.165ZM220.883 184.422L217.797 187.256L214.711 184.309V164.245L217.797 161.298L220.883 164.245V184.422ZM221.002 212.76L217.916 215.707L214.83 212.76V192.583L217.916 189.636L221.002 192.583V212.76Z" fill="#666275"/>
<path d="M137.325 293.805C91.8666 293.805 55.0725 328.943 55.0725 372.357C55.0725 415.77 91.8666 450.909 137.325 450.909C182.784 450.909 219.578 415.77 219.578 372.357C219.578 328.943 182.784 293.805 137.325 293.805ZM73.9443 372.47C73.9443 344.472 94.0031 320.895 121.065 313.981V430.846C94.0031 424.045 73.9443 400.468 73.9443 372.47ZM153.467 430.846V313.981C180.529 320.782 200.587 344.472 200.587 372.47C200.587 400.468 180.529 424.045 153.467 430.846Z" fill="#FFC84A"/>
<path d="M121.065 313.981C94.0031 320.782 73.9443 344.472 73.9443 372.47C73.9443 400.467 94.0031 424.044 121.065 430.959V313.981Z" fill="#FFE5A7"/>
<path d="M153.467 313.981V430.846C180.529 424.044 200.587 400.354 200.587 372.357C200.587 344.359 180.529 320.895 153.467 313.981Z" fill="#FFE5A7"/>
<path d="M80.947 252.319H42.61C39.4053 252.319 36.9128 254.813 36.9128 257.76V270.228C36.9128 273.289 39.524 275.669 42.61 275.669H80.947C84.1517 275.669 86.6442 273.175 86.6442 270.228V257.76C86.6442 254.699 84.1517 252.319 80.947 252.319Z" fill="#FFC84A"/>
<path d="M236.907 252.319H198.57C195.365 252.319 192.872 254.813 192.872 257.76V270.228C192.872 273.289 195.484 275.669 198.57 275.669H236.907C240.111 275.669 242.604 273.175 242.604 270.228V257.76C242.604 254.699 239.993 252.319 236.907 252.319Z" fill="#FFC84A"/>
<path d="M121.065 270.001C124.539 270.001 127.355 267.311 127.355 263.993C127.355 260.676 124.539 257.986 121.065 257.986C117.59 257.986 114.774 260.676 114.774 263.993C114.774 267.311 117.59 270.001 121.065 270.001Z" fill="#FE785A"/>
<path d="M153.467 270.001C156.941 270.001 159.758 267.311 159.758 263.993C159.758 260.676 156.941 257.986 153.467 257.986C149.993 257.986 147.176 260.676 147.176 263.993C147.176 267.311 149.993 270.001 153.467 270.001Z" fill="#8AC249"/>
<path d="M59.3453 522.773H20.1774V460.997C20.1774 450.682 28.9605 442.294 39.7614 442.294C50.5622 442.294 59.3453 450.682 59.3453 460.997V522.773Z" fill="#6D6E71"/>
<path d="M59.3453 507.244H20.1774V513.705H59.3453V507.244Z" fill="#58595B"/>
<path d="M31.2157 495.002H20.1774V501.463H31.2157C33.1147 501.463 34.539 499.99 34.539 498.289C34.539 496.589 33.1147 495.002 31.2157 495.002Z" fill="#58595B"/>
<path d="M48.3071 495.002H59.3453V501.463H48.3071C46.4081 501.463 44.9838 499.99 44.9838 498.289C44.9838 496.589 46.4081 495.002 48.3071 495.002Z" fill="#58595B"/>
<path d="M59.3453 482.647H20.1774V489.108H59.3453V482.647Z" fill="#58595B"/>
<path d="M107.296 522.773H68.1284V460.997C68.1284 450.682 76.9115 442.294 87.7124 442.294C98.5132 442.294 107.296 450.682 107.296 460.997V522.773Z" fill="#C2BED1"/>
<path d="M107.296 507.244H68.1285V513.705H107.296V507.244Z" fill="#D1CDE0"/>
<path d="M79.1667 495.002H68.1285V501.463H79.1667C81.0658 501.463 82.4901 499.99 82.4901 498.289C82.4901 496.589 80.9471 495.002 79.1667 495.002Z" fill="#D1CDE0"/>
<path d="M96.2582 495.002H107.296V501.463H96.2582C94.3591 501.463 92.9348 499.99 92.9348 498.289C92.9348 496.589 94.3591 495.002 96.2582 495.002Z" fill="#D1CDE0"/>
<path d="M107.296 482.647H68.1285V489.108H107.296V482.647Z" fill="#D1CDE0"/>
<path d="M289.843 568H64.093C46.4081 568 32.1652 554.284 32.1652 537.509V522.886H47.595V537.509C47.595 546.237 55.0725 553.264 64.093 553.264H289.961C299.101 553.264 306.459 546.123 306.459 537.509V293.805H321.889V537.395C321.889 554.284 307.528 568 289.843 568Z" fill="#666275"/>
<path d="M319.307 68.3503H310.049C303.521 68.3503 298.18 73.4511 298.18 79.6854V293.918H331.176V79.6854C331.176 73.3378 325.835 68.3503 319.307 68.3503Z" fill="#858194"/>
<path d="M334.262 135.907H295.094V143.842H334.262V135.907Z" fill="#A39FB3"/>
<path d="M403.43 85.0129L397.733 55.9951L392.035 85.0129V136.247H403.43V85.0129Z" fill="#666275"/>
<path d="M402.361 124.346H393.104C386.576 124.346 381.234 129.446 381.234 135.681V349.913H414.23V135.681C414.23 129.333 408.889 124.346 402.361 124.346Z" fill="#C6B3FF"/>
<path d="M417.317 191.903H378.148V199.837H417.317V191.903Z" fill="#D9CCFF"/>
</svg>
