<svg width="92" height="67" viewBox="0 0 92 67" fill="none" xmlns="http://www.w3.org/2000/svg">
<path fill-rule="evenodd" clip-rule="evenodd" d="M91.1201 17.42C91.1201 14.4598 88.7204 12.06 85.7601 12.06L64.3201 12.06L64.3201 0L44.2201 0C25.7186 0 10.7201 14.9985 10.7201 33.5C10.7201 52.0015 25.7186 67 44.2201 67H64.3201L64.3201 54.94H85.7601C88.7204 54.94 91.1201 52.5402 91.1201 49.58C91.1201 46.6198 88.7204 44.22 85.7601 44.22H64.3201V22.78H85.7601C88.7204 22.78 91.1201 20.3802 91.1201 17.42ZM8.04012 30.8C8.04012 28.5909 6.22926 26.8 4.02012 26.8C1.81097 26.8 0.000114441 28.5909 0.000114441 30.8V36.2C0.000114441 38.4091 1.81097 40.2 4.02012 40.2C6.22926 40.2 8.04012 38.4091 8.04012 36.2V30.8Z" fill="#D9CCFF"/>
</svg>
