<svg width="40" height="32" viewBox="0 0 40 32" fill="none" xmlns="http://www.w3.org/2000/svg">
<path d="M19.4701 8.51801L6.66667 19.0632V30.4444C6.66667 30.7391 6.78373 31.0217 6.9921 31.2301C7.20048 31.4385 7.48309 31.5555 7.77778 31.5555L15.5597 31.5354C15.8534 31.5339 16.1346 31.4162 16.3418 31.208C16.549 30.9998 16.6653 30.718 16.6653 30.4243V23.7777C16.6653 23.4831 16.7823 23.2004 16.9907 22.9921C17.1991 22.7837 17.4817 22.6666 17.7764 22.6666H22.2208C22.5155 22.6666 22.7981 22.7837 23.0065 22.9921C23.2149 23.2004 23.3319 23.4831 23.3319 23.7777V30.4194C23.3315 30.5656 23.3599 30.7105 23.4155 30.8457C23.4712 30.9809 23.5529 31.1038 23.6562 31.2073C23.7594 31.3109 23.882 31.393 24.017 31.4491C24.1521 31.5051 24.2969 31.534 24.4431 31.534L32.2222 31.5555C32.5169 31.5555 32.7995 31.4385 33.0079 31.2301C33.2163 31.0217 33.3333 30.7391 33.3333 30.4444V19.0555L20.5326 8.51801C20.3822 8.39671 20.1947 8.33056 20.0014 8.33056C19.8081 8.33056 19.6206 8.39671 19.4701 8.51801ZM39.6944 15.6854L33.8889 10.9V1.28121C33.8889 1.0602 33.8011 0.848234 33.6448 0.691954C33.4885 0.535673 33.2766 0.447876 33.0556 0.447876H29.1667C28.9457 0.447876 28.7337 0.535673 28.5774 0.691954C28.4211 0.848234 28.3333 1.0602 28.3333 1.28121V6.32357L22.116 1.20829C21.5193 0.717306 20.7706 0.448857 19.9979 0.448857C19.2252 0.448857 18.4765 0.717306 17.8799 1.20829L0.301389 15.6854C0.217006 15.7551 0.147191 15.8408 0.0959359 15.9375C0.0446803 16.0343 0.0129879 16.1402 0.00266937 16.2492C-0.00764911 16.3581 0.00360861 16.4681 0.0357993 16.5727C0.0679899 16.6774 0.120483 16.7746 0.190278 16.859L1.96111 19.0118C2.03072 19.0964 2.11633 19.1665 2.21305 19.218C2.30978 19.2695 2.41571 19.3014 2.52479 19.3119C2.63386 19.3224 2.74394 19.3113 2.84872 19.2793C2.9535 19.2472 3.05093 19.1947 3.13542 19.125L19.4701 5.67079C19.6206 5.54949 19.8081 5.48334 20.0014 5.48334C20.1947 5.48334 20.3822 5.54949 20.5326 5.67079L36.8681 19.125C36.9524 19.1948 37.0497 19.2472 37.1543 19.2794C37.2589 19.3116 37.3689 19.3229 37.4779 19.3126C37.5869 19.3022 37.6928 19.2706 37.7895 19.2193C37.8862 19.168 37.9719 19.0982 38.0417 19.0138L39.8125 16.8611C39.8822 16.7762 39.9345 16.6785 39.9663 16.5734C39.9981 16.4683 40.0088 16.3579 39.9979 16.2487C39.9869 16.1394 39.9544 16.0334 39.9024 15.9367C39.8503 15.8401 39.7796 15.7546 39.6944 15.6854Z" fill="white"/>
</svg>
