<svg width="40" height="40" viewBox="0 0 40 40" fill="none" xmlns="http://www.w3.org/2000/svg">
<path d="M17.4805 10.2148L12.0797 1.21406C11.8576 0.843797 11.5435 0.537358 11.1678 0.324597C10.7921 0.111835 10.3677 5.30098e-06 9.93594 0H1.25235C0.24063 0 -0.351558 1.13828 0.228129 1.96719L8.9211 14.3859C11.243 12.2164 14.1961 10.7273 17.4805 10.2148ZM38.7477 0H30.0641C29.1859 0 28.3719 0.460937 27.9203 1.21406L22.5195 10.2148C25.8039 10.7273 28.757 12.2164 31.0789 14.3852L39.7719 1.96719C40.3516 1.13828 39.7594 0 38.7477 0ZM20 12.5C12.4063 12.5 6.25 18.6562 6.25 26.25C6.25 33.8438 12.4063 40 20 40C27.5938 40 33.75 33.8438 33.75 26.25C33.75 18.6562 27.5938 12.5 20 12.5ZM27.2281 24.7859L24.2648 27.6734L24.9656 31.7531C25.0906 32.4844 24.3203 33.043 23.6648 32.6977L20 30.7719L16.3359 32.6977C15.6797 33.0453 14.9102 32.4836 15.0352 31.7531L15.7359 27.6734L12.7727 24.7859C12.2398 24.2672 12.5344 23.3617 13.2688 23.2555L17.3648 22.6586L19.1953 18.9461C19.3602 18.6117 19.6789 18.4469 19.9984 18.4469C20.3195 18.4469 20.6406 18.6141 20.8055 18.9461L22.6359 22.6586L26.732 23.2555C27.4664 23.3617 27.7609 24.2672 27.2281 24.7859Z" fill="white"/>
</svg>
